<?xml version="1.0" standalone="no"?><!DOCTYPE svg PUBLIC "-//W3C//DTD SVG 1.1//EN" "http://www.w3.org/Graphics/SVG/1.1/DTD/svg11.dtd"><svg t="1580789906250" class="icon" viewBox="0 0 1024 1024" version="1.1" xmlns="http://www.w3.org/2000/svg" p-id="5260" xmlns:xlink="http://www.w3.org/1999/xlink" width="64" height="64"><defs><style type="text/css"></style></defs><path d="M514.133333 170.666667c32 0 64 2.133333 91.733334 8.533333s53.333333 12.8 72.533333 21.333333 34.133333 17.066667 44.8 27.733334 17.066667 19.2 17.066667 25.6v541.866666a58.282667 58.282667 0 0 1-57.6 57.6h-341.333334a58.282667 58.282667 0 0 1-57.6-57.6v-541.866666c0-8.533333 6.4-17.066667 17.066667-25.6s27.733333-19.2 46.933333-27.733334 44.8-14.933333 72.533334-21.333333c29.866667-6.4 61.866667-8.533333 93.866666-8.533333z m-172.8 113.066666v398.933334h341.333334v-398.933334h-341.333334z m170.666667 424.533334c-17.066667 0-29.866667 6.4-42.666667 17.066666-10.666667 10.666667-17.066667 25.6-17.066666 42.666667s6.4 29.866667 17.066666 42.666667c10.666667 10.666667 25.6 17.066667 42.666667 17.066666s29.866667-6.4 42.666667-17.066666c10.666667-10.666667 17.066667-25.6 17.066666-42.666667s-6.4-29.866667-17.066666-42.666667c-12.8-10.666667-25.6-17.066667-42.666667-17.066666z" p-id="5261"></path></svg>